<svg width="32" height="32" viewBox="0 0 32 32" fill="none" xmlns="http://www.w3.org/2000/svg">
<rect width="32" height="32" rx="10" fill="white"/>
<g clip-path="url(#clip0_2967_3596)">
<path d="M24.3832 22.6024L12.3001 24.9576C12.2525 24.9677 12.2031 24.9667 12.1561 24.9544C12.1161 24.9422 12.0783 24.9238 12.0441 24.9L7.30812 21.2776C7.22682 21.215 7.18053 21.117 7.18375 21.0143C7.18683 20.9117 7.23912 20.8168 7.32408 20.7592C7.36261 20.7332 7.40626 20.7157 7.45211 20.708L12.6105 19.8729L17.468 19.0824L18.4536 18.9225C18.5216 18.9121 18.5908 18.9232 18.6521 18.9544L24.4727 22.0041C24.5939 22.0672 24.6615 22.2001 24.6413 22.3351C24.6211 22.4702 24.5174 22.5775 24.3832 22.6024Z" fill="#C1C7D0"/>
<path d="M22.46 22.9416L12.1561 24.9544C12.1161 24.9423 12.0783 24.9238 12.0441 24.9001L7.30812 21.2777C7.22682 21.215 7.18053 21.117 7.18375 21.0143C7.18683 20.9118 7.23912 20.8169 7.32408 20.7593L10.6873 20.2153L15.5449 19.4248L16.5304 19.2649C16.5984 19.2545 16.6677 19.2658 16.7289 19.297L22.5465 22.3464C22.667 22.4087 22.7348 22.5405 22.7154 22.6749C22.6959 22.8092 22.5933 22.9163 22.46 22.9416Z" fill="#F4F6F9"/>
<path d="M20.5606 22.0456L12.6213 23.5912C12.5961 23.5964 12.5704 23.5986 12.5446 23.5976C12.48 23.5938 12.4177 23.5715 12.3654 23.5336L10.4455 22.0648C10.3649 22.0034 10.3185 21.9075 10.3204 21.8064C10.3223 21.7052 10.3724 21.611 10.455 21.5529C10.4944 21.5228 10.5405 21.5031 10.5895 21.4951L13.2229 21.0664L17.1878 20.4264L18.2373 20.2535C18.3066 20.243 18.3774 20.2553 18.4389 20.2889L20.6501 21.4472C20.7712 21.5104 20.8389 21.6432 20.8187 21.7783C20.7985 21.9134 20.6947 22.0207 20.5606 22.0456Z" fill="#F4F6F9"/>
<path d="M19.2037 22.2983L12.5446 23.5976C12.48 23.5938 12.4177 23.5716 12.3654 23.5336L10.4455 22.0648C10.3649 22.0035 10.3185 21.9075 10.3204 21.8064C10.3223 21.7052 10.3724 21.611 10.455 21.5529L11.863 21.3224L15.8277 20.6825L16.8774 20.5096C16.9462 20.4995 17.0166 20.5106 17.079 20.5415L19.2901 21.7032C19.4086 21.7669 19.4747 21.8978 19.4554 22.031C19.436 22.1641 19.3355 22.2711 19.2037 22.2983Z" fill="#C1C7D0"/>
<path d="M24.0156 7.02177C23.6938 7.03276 23.3732 7.06469 23.0556 7.11772C20.7164 7.50179 16.7644 9.25212 14.3996 16.3465C14.0315 16.102 13.6465 15.8839 13.2477 15.6937C12.4307 15.2803 11.5502 15.0067 10.6429 14.8841C9.5828 14.718 8.50263 15.0178 7.67969 15.7065C7.72451 15.6681 8.18857 15.908 8.23647 15.9272C8.70888 16.136 9.16649 16.3765 9.60609 16.6473C10.7399 17.3431 11.6911 18.2998 12.3805 19.4377C12.8029 20.1449 13.1485 21.3064 13.8781 21.828C14.1203 22.0111 14.4162 22.109 14.7197 22.1065C15.3693 22.1065 16.1053 22.1289 16.598 21.6329C17.2029 21.0281 17.2124 20.1417 17.398 19.3577C18.3239 15.6701 20.088 12.2458 22.5532 9.35129C22.7036 9.16892 22.8573 8.98977 23.014 8.8137C23.3302 8.4576 23.6655 8.11893 24.0187 7.7993C24.0668 7.7577 24.15 7.6682 24.2491 7.56581C24.3401 7.47308 24.3659 7.33466 24.3148 7.21542C24.2635 7.09618 24.1453 7.01972 24.0156 7.02177Z" fill="#C1C7D0"/>
<path d="M23.0556 7.11768C23.0475 7.18359 23.0171 7.24453 22.9692 7.29053C22.87 7.39292 22.7868 7.48257 22.7387 7.52724C22.3848 7.84497 22.0494 8.18261 21.734 8.53856C21.5771 8.71771 21.4236 8.89686 21.2732 9.07616C18.8073 11.9714 17.0432 15.3968 16.118 19.0856C15.9324 19.8696 15.9229 20.7528 15.3181 21.3576C14.9186 21.6977 14.4012 21.8668 13.8781 21.828C13.1485 21.3063 12.8029 20.1449 12.3805 19.4376C11.6911 18.2998 10.7399 17.3431 9.60609 16.6473C9.16649 16.3764 8.70888 16.1359 8.23647 15.9272C8.18857 15.908 7.72451 15.668 7.67969 15.7064C8.50263 15.0178 9.5828 14.718 10.6429 14.8841C11.5502 15.0067 12.4307 15.2803 13.2477 15.6937C13.6465 15.8838 14.0315 16.1019 14.3996 16.3464C16.7644 9.25208 20.7164 7.50175 23.0556 7.11768Z" fill="#F4F6F9"/>
<path d="M7.51368 20.7592C7.42858 20.8168 7.37628 20.9117 7.3732 21.0143C7.36998 21.117 7.41627 21.215 7.49757 21.2777L12.2335 24.9C12.2679 24.9238 12.3056 24.9422 12.3456 24.9544C12.3927 24.9667 12.442 24.9677 12.4896 24.9576L13.1107 24.8366L8.45762 21.2777C8.37632 21.215 8.33003 21.117 8.33311 21.0143C8.33633 20.9117 8.38863 20.8168 8.47359 20.7592C8.51211 20.7332 8.55576 20.7157 8.60161 20.708L13.7593 19.8729C13.6836 19.7179 13.608 19.5685 13.5296 19.4377C12.8403 18.2998 11.889 17.3431 10.7552 16.6473C10.3155 16.3765 9.858 16.1359 9.38559 15.9272C9.33755 15.908 8.87363 15.6681 8.82881 15.7065C9.37402 15.2323 10.0555 14.9428 10.7754 14.8799C9.73305 14.729 8.67573 15.0296 7.86876 15.7065C7.91358 15.6681 8.37764 15.908 8.42569 15.9272C8.89795 16.1359 9.35556 16.3765 9.79516 16.6473C10.9291 17.3431 11.8802 18.2998 12.5696 19.4377C12.6479 19.5685 12.7235 19.7179 12.7994 19.8729L7.64156 20.708C7.59586 20.7157 7.55221 20.7332 7.51368 20.7592Z" fill="white"/>
<path d="M6.91386 20.5724L10.2184 23.0994L12.3538 24.7324L11.9653 25.2405L9.82961 23.6075L6.52539 21.0805L6.91386 20.5724Z" fill="white"/>
<path d="M8.65187 22.0779C8.63136 22.0847 8.61173 22.0943 8.59371 22.1065C8.5754 22.1151 8.55855 22.1267 8.54376 22.1408C8.52794 22.1553 8.51314 22.1708 8.49967 22.1873C8.44913 22.2555 8.42628 22.34 8.43565 22.4242C8.46319 22.5977 8.62198 22.7191 8.79659 22.7003C8.83805 22.6935 8.87789 22.679 8.91407 22.6576C8.9504 22.6368 8.98234 22.6091 9.00812 22.5763C9.08707 22.4734 9.09615 22.3331 9.03112 22.2209C8.96622 22.1087 8.83995 22.0469 8.71148 22.0642L8.65187 22.0779Z" fill="#133F1E"/>
<path d="M17.7114 19.4331C17.7168 19.4104 17.7233 19.3874 17.7287 19.3647L18.5062 19.2392L24.3244 22.2869L12.2404 24.6446L9.96524 22.9064C9.87442 22.837 9.75342 22.8213 9.64781 22.8652C9.5422 22.9092 9.46822 23.006 9.45343 23.1194C9.43863 23.2328 9.48551 23.3454 9.57647 23.4148L11.9662 25.2421C12.0222 25.2843 12.0903 25.3068 12.1604 25.3064C12.1809 25.3064 12.2016 25.3043 12.2218 25.3004L25.3417 22.7403C25.475 22.7144 25.5774 22.607 25.597 22.4725C25.6167 22.3382 25.5493 22.2061 25.429 22.1429L18.7091 18.6229C18.6479 18.591 18.5779 18.5799 18.5098 18.5909L17.9049 18.687C18.8713 15.3313 20.5391 12.2191 22.798 9.55607C22.9475 9.37736 23.0994 9.20026 23.2541 9.02492C23.5625 8.67775 23.8899 8.34802 24.2349 8.03704C24.2717 8.0051 24.327 7.9468 24.3949 7.87708L24.4806 7.78845C24.6648 7.60096 24.7155 7.31985 24.6086 7.07962C24.5069 6.84027 24.2671 6.68924 24.0073 6.70082C21.9922 6.76732 17.0563 7.80003 14.2295 15.8578C13.1328 15.1961 9.76485 13.4578 7.4699 15.4655C7.36941 15.5532 7.33396 15.694 7.38084 15.819C7.42771 15.9438 7.54709 16.0265 7.68039 16.0265H7.68259C7.80549 16.0749 7.9259 16.1295 8.04323 16.19L8.10959 16.2219C8.56779 16.4242 9.01134 16.6583 9.43687 16.9224C10.5298 17.5889 11.4457 18.5093 12.107 19.6053C12.1114 19.6127 12.1156 19.622 12.12 19.6296L6.66922 20.5105C6.49476 20.5389 6.3764 20.7031 6.40452 20.8776C6.41815 20.958 6.46209 21.0301 6.52742 21.0789L7.54416 21.8566C7.68449 21.9639 7.88532 21.9371 7.9927 21.7966C8.10007 21.6563 8.07326 21.4553 7.93293 21.348L7.50505 21.0235L12.4269 20.2268C12.4401 20.2543 12.4528 20.2795 12.466 20.3074C12.5457 20.4751 12.6289 20.6498 12.7184 20.8241L9.80645 21.2977C9.68033 21.3182 9.57852 21.4117 9.54732 21.5356C9.51627 21.6595 9.56168 21.7901 9.66319 21.8677L12.2871 23.8741C12.3425 23.9167 12.4105 23.9398 12.4804 23.94C12.5009 23.9401 12.5214 23.9382 12.5414 23.9343L21.5175 22.1835C21.6508 22.1576 21.753 22.0502 21.7728 21.9157C21.7924 21.7814 21.7251 21.6493 21.6048 21.5862L18.4911 19.9542C18.4298 19.9221 18.3596 19.9108 18.2912 19.9221L17.5923 20.0364C17.5961 20.0153 17.6004 19.9934 17.6042 19.9723C17.6369 19.7903 17.6695 19.6104 17.7114 19.4331ZM9.7754 16.3766C9.32496 16.0974 8.85548 15.8502 8.37033 15.6367L8.34059 15.6219C10.7034 14.2182 14.1828 16.5839 14.2201 16.6095C14.303 16.6667 14.4078 16.6815 14.5031 16.6497C14.5985 16.6177 14.6734 16.5429 14.7053 16.4475C17.3805 8.41657 22.1151 7.40379 24.021 7.34212L23.9324 7.43353C23.8784 7.48992 23.8338 7.53665 23.8044 7.56375C23.442 7.89085 23.0979 8.23757 22.7737 8.60246C22.6157 8.78176 22.46 8.9631 22.3069 9.1465C19.8785 12.0056 18.1205 15.3717 17.162 18.9982C17.1603 19.0038 17.159 19.0088 17.1577 19.0143C17.135 19.1046 17.1104 19.1948 17.0887 19.2853C17.0442 19.4725 17.0093 19.6649 16.9745 19.8584C16.9443 20.0252 16.914 20.1887 16.8784 20.347L16.8765 20.3554C16.8129 20.7467 16.6384 21.1114 16.3737 21.4066C15.9936 21.7864 15.3923 21.788 14.7965 21.7864H14.7204C14.1763 21.7864 13.8054 21.4133 13.5018 20.9173C13.4958 20.9052 13.4887 20.8934 13.4807 20.8824C13.3232 20.6194 13.1827 20.3249 13.0442 20.0331C12.9139 19.7589 12.791 19.4998 12.6557 19.2741C11.942 18.0906 10.9536 17.0966 9.77379 16.3766H9.7754ZM18.289 20.5704L20.5005 21.7294L12.5603 23.2786L10.6404 21.8104L13.0638 21.4165C13.4442 21.9784 13.9524 22.4264 14.7204 22.4264H14.8711C15.5092 22.4264 16.2791 22.4066 16.827 21.8585C17.1315 21.5363 17.3458 21.1397 17.448 20.7084L18.289 20.5704Z" fill="#133F1E"/>
<path d="M17.765 12.7862C17.8123 12.8128 17.8658 12.8266 17.9201 12.8265C18.0366 12.8266 18.1436 12.7635 18.2002 12.6617C19.7236 9.91992 21.5601 8.96513 21.5841 8.95254C21.7422 8.873 21.8059 8.68037 21.7264 8.52231C21.6468 8.36426 21.4542 8.30054 21.2961 8.38008C21.2143 8.42109 19.2689 9.4185 17.6394 12.3513C17.5984 12.4255 17.5886 12.5131 17.6122 12.5947C17.6356 12.6763 17.6906 12.7452 17.765 12.7862Z" fill="#133F1E"/>
<path d="M16.8177 14.3945C16.8938 14.4324 16.9817 14.4386 17.0622 14.4118C17.1428 14.3848 17.2093 14.3271 17.2472 14.2511L17.5672 13.6111C17.6463 13.4529 17.582 13.2606 17.4239 13.1816C17.2657 13.1027 17.0734 13.1668 16.9944 13.325L16.6743 13.965C16.6364 14.0409 16.6303 14.1289 16.6571 14.2095C16.684 14.2899 16.7417 14.3566 16.8177 14.3945Z" fill="#133F1E"/>
</g>
<defs>
<clipPath id="clip0_2967_3596">
<rect width="19.2" height="19.2" fill="white" transform="translate(6.40039 6.40002)"/>
</clipPath>
</defs>
</svg>