<svg width="21" height="23" viewBox="0 0 21 23" fill="none" xmlns="http://www.w3.org/2000/svg">
<path d="M3 20C3 20 6.5 20.0002 9.5 20.0002C11.5838 20.0002 14.1792 20.5258 15.9503 20.9547C17.3038 21.2825 18.5153 22.0155 19.5 23.0004C19.5 23.0004 14 22.5 10 22.5C6 22.5 3 23.0004 3 23.0004V20Z" fill="black"/>
<rect y="3" width="3" height="20" fill="black"/>
<rect x="5" y="1" width="3" height="17" fill="black"/>
<path d="M5 16L12.2993 16.6083C15.2578 16.8548 17.9266 18.4825 19.5 21C19.5 21 15 19 12.5 19C10 19 5 19 5 19V16Z" fill="black"/>
<path d="M10 14.5V1C14.1781 2.04663 16.3884 2.85329 20 5V18.5C16.4341 15.7357 14.2237 14.9321 10 14.5Z" fill="#12B76A" stroke="#12B76A"/>
</svg>
