<svg width="32" height="32" viewBox="0 0 32 32" fill="none" xmlns="http://www.w3.org/2000/svg">
<circle cx="16" cy="16" r="16" fill="white"/>
<path d="M20.7617 15.7872C20.3234 15.2754 20.1242 14.8318 20.1242 14.0783V13.8221C20.1242 12.8401 19.8982 12.2074 19.4069 11.5748C18.6496 10.5922 17.3746 10 16.1265 10H16.0735C14.8516 10 13.6166 10.565 12.8462 11.5077C12.328 12.1531 12.0758 12.8129 12.0758 13.8221V14.0783C12.0758 14.8318 11.8897 15.2754 11.4383 15.7872C11.1061 16.1643 11 16.6489 11 17.1734C11 17.6985 11.1723 18.1959 11.5182 18.6001C11.9696 19.0848 12.6071 19.3942 13.2583 19.4479C14.201 19.5555 15.1438 19.596 16.1003 19.596C17.0562 19.596 17.999 19.5283 18.9423 19.4479C19.5929 19.3942 20.2304 19.0848 20.6818 18.6001C21.0271 18.1959 21.2 17.6985 21.2 17.1734C21.2 16.6489 21.0939 16.1643 20.7617 15.7872Z" fill="#B54708"/>
<path opacity="0.4" d="M17.3052 20.3371C17.0052 20.273 15.1775 20.273 14.8776 20.3371C14.6212 20.3963 14.3439 20.5341 14.3439 20.8362C14.3588 21.1245 14.5275 21.3789 14.7613 21.5402L14.7607 21.5408C15.063 21.7765 15.4178 21.9264 15.7893 21.9801C15.9873 22.0073 16.1889 22.0061 16.394 21.9801C16.7649 21.9264 17.1197 21.7765 17.4221 21.5408L17.4215 21.5402C17.6552 21.3789 17.824 21.1245 17.8389 20.8362C17.8389 20.5341 17.5616 20.3963 17.3052 20.3371Z" fill="#B54708"/>
</svg>
