<svg width="100" height="100" viewBox="0 0 100 100" fill="none" xmlns="http://www.w3.org/2000/svg">
<circle cx="50" cy="50" r="50" fill="#FFF8E8"/>
<circle cx="50" cy="50" r="44" fill="#FFE19C"/>
<mask id="mask0_2580_30263" style="mask-type:alpha" maskUnits="userSpaceOnUse" x="6" y="6" width="88" height="88">
<circle cx="50" cy="50" r="44" fill="#F88600"/>
</mask>
<g mask="url(#mask0_2580_30263)">
<path d="M49.4741 109.714C45.5941 109.714 41.8731 108.173 39.1296 105.429C36.386 102.686 34.8447 98.9646 34.8447 95.0846V63.936H64.1203V95.0846C64.1203 97.0072 63.7414 98.9109 63.0051 100.687C62.2689 102.463 61.1898 104.076 59.8295 105.435C58.4693 106.794 56.8546 107.871 55.0777 108.605C53.3008 109.339 51.3967 109.716 49.4741 109.714Z" fill="#CC8070"/>
<path d="M34.8596 73.8403C34.8596 73.8403 42.9083 88.7902 52.1044 88.0647C66.3288 86.9341 63.9159 69.3013 63.9159 69.3013C63.9159 69.3013 58.3982 81.1128 49.6746 81.1128C46.819 81.0829 44.0063 80.4143 41.4427 79.1558C38.8792 77.8974 36.6298 76.0812 34.8596 73.8403Z" fill="#B76456"/>
<path d="M27.6535 53.1542L26.2023 38.3561C24.3294 28.8901 31.7031 23.8955 38.1657 23.8955H60.5063C67.3569 23.8955 75.5068 28.8563 72.0478 39.5204L70.0398 55.6347L27.6535 53.1542Z" fill="#101828"/>
<path d="M68.5407 61.2529C72.9615 64.5263 80.6221 49.6439 76.3025 46.0667C71.9829 42.4895 69.1313 49.0027 69.1313 49.0027L69.03 54.4697L68.4057 59.5318L68.1526 61.101L68.5407 61.2529Z" fill="#CC8070"/>
<path d="M75.1197 50.6048C75.1197 50.6048 71.8968 49.5418 69.6189 54.2664" stroke="#101828" stroke-width="0.52" stroke-linecap="round" stroke-linejoin="round"/>
<path d="M71.1899 52.0063C71.1899 52.0063 74.6828 53.8793 72.3711 56.6803" stroke="#101828" stroke-width="0.52" stroke-linecap="round" stroke-linejoin="round"/>
<path d="M29.8483 61.2526C25.4105 64.5261 17.7499 49.6436 22.0696 46.0664C26.3892 42.4892 29.089 49.1374 29.089 49.1374L29.3421 54.537L29.9833 59.599L30.2195 61.1683L29.8483 61.2526Z" fill="#CC8070"/>
<path d="M23.2695 50.6048C23.2695 50.6048 26.4755 49.5418 28.7534 54.2664" stroke="#101828" stroke-width="0.52" stroke-linecap="round" stroke-linejoin="round"/>
<path d="M27.2 52.0063C27.2 52.0063 23.6903 53.8793 26.002 56.6803" stroke="#101828" stroke-width="0.52" stroke-linecap="round" stroke-linejoin="round"/>
<path d="M69.9907 42.0528C69.9786 49.7219 69.1585 57.3685 67.5441 64.8658C66.3342 70.4193 62.9807 75.2706 58.213 78.3647L57.3356 78.9384C54.8625 80.5445 51.984 81.4146 49.0354 81.4475C46.0868 81.4804 43.1896 80.6745 40.6814 79.124C38.128 77.5586 35.9296 75.4773 34.227 73.0134C32.5243 70.5494 31.3548 67.7571 30.7935 64.8152C29.4991 57.2915 28.7491 49.6843 28.5493 42.0528C28.5493 42.0528 26.6257 18.801 48.9831 19.2566C71.3406 19.7122 69.9907 42.0528 69.9907 42.0528Z" fill="#CC8070"/>
<path d="M70.2949 15.6942C63.1911 10.6321 49.1692 14.1924 41.5086 17.7021C41.6773 15.4073 40.2768 15.6604 40.2768 15.6604C26.778 19.2714 30.3552 29.8679 30.3552 29.8679H30.4733C29.0728 32.9221 27.2504 39.4184 28.9715 51.1792C28.9715 51.1792 32.5487 38.4566 32.6331 30.931C38.6063 33.5633 54.9568 39.9583 65.6209 36.3811C66.5728 41.416 67.8581 46.3821 69.4681 51.2467C70.4131 45.7042 70.3788 40.0389 69.3668 34.5082C70.0328 34.0505 70.6493 33.5246 71.206 32.9389C71.206 32.9389 80.3515 22.8148 70.2949 15.6942Z" fill="#101828"/>
<path d="M47.3115 50.9595V58.4682C47.3139 58.7161 47.3596 58.9616 47.4465 59.1938C47.638 59.608 47.9706 59.9407 48.3848 60.1323C48.799 60.324 49.2678 60.3621 49.7076 60.2399L51.6649 59.7168" stroke="#101828" stroke-width="0.52" stroke-linecap="round" stroke-linejoin="round"/>
<path d="M39.8714 50.8091C40.9431 50.8091 41.8118 49.9404 41.8118 48.8687C41.8118 47.797 40.9431 46.9282 39.8714 46.9282C38.7997 46.9282 37.9309 47.797 37.9309 48.8687C37.9309 49.9404 38.7997 50.8091 39.8714 50.8091Z" fill="#101828"/>
<path d="M57.8423 50.8091C58.914 50.8091 59.7828 49.9404 59.7828 48.8687C59.7828 47.797 58.914 46.9282 57.8423 46.9282C56.7706 46.9282 55.9019 47.797 55.9019 48.8687C55.9019 49.9404 56.7706 50.8091 57.8423 50.8091Z" fill="#101828"/>
<path d="M43.3993 50.9951L38.5735 54.1842" stroke="#101828" stroke-width="0.39" stroke-linecap="round" stroke-linejoin="round"/>
<path d="M54.7896 50.978L59.0586 54.2009" stroke="#101828" stroke-width="0.39" stroke-linecap="round" stroke-linejoin="round"/>
<path d="M43.5676 63.936C45.1974 64.8394 47.0606 65.2333 48.9165 65.0666C50.8828 65.1109 52.8351 64.7251 54.6367 63.936" stroke="#101828" stroke-width="0.52" stroke-linecap="round" stroke-linejoin="round"/>
<path d="M49.0679 74.3984V76.5076" stroke="#101828" stroke-width="0.39" stroke-linecap="round" stroke-linejoin="round"/>
<path d="M44.7994 44.4289V40.6323L37.78 40.7673C36.8982 40.7863 36.0483 41.1013 35.3671 41.6616L32.5999 44.8845L37.2401 44.1926L44.7994 44.4289Z" fill="#101828"/>
<path d="M53.017 44.4289L52.9326 40.6323L59.952 40.7673C60.8344 40.7837 61.6851 41.099 62.3649 41.6616L65.1659 44.8845L60.5088 44.1926L53.017 44.4289Z" fill="#101828"/>
<path opacity="0.19" d="M68.034 50.8582C68.034 52.5268 67.5391 54.158 66.6121 55.5454C65.6851 56.9328 64.3674 58.0142 62.8258 58.6527C61.2842 59.2913 59.5878 59.4584 57.9512 59.1328C56.3147 58.8073 54.8114 58.0038 53.6315 56.8239C52.4516 55.644 51.648 54.1407 51.3225 52.5041C50.997 50.8675 51.1641 49.1712 51.8026 47.6295C52.4412 46.0879 53.5225 44.7703 54.91 43.8432C56.2974 42.9162 57.9285 42.4214 59.5972 42.4214C61.8348 42.4214 63.9807 43.3103 65.5629 44.8925C67.1451 46.4747 68.034 48.6206 68.034 50.8582Z" fill="#FFF8E8"/>
<path opacity="0.19" d="M47.3482 50.8582C47.3482 52.5268 46.8534 54.158 45.9263 55.5454C44.9993 56.9328 43.6816 58.0142 42.14 58.6527C40.5984 59.2913 38.902 59.4584 37.2655 59.1328C35.6289 58.8073 34.1256 58.0038 32.9457 56.8239C31.7658 55.644 30.9623 54.1407 30.6367 52.5041C30.3112 50.8675 30.4783 49.1712 31.1168 47.6295C31.7554 46.0879 32.8367 44.7703 34.2242 43.8432C35.6116 42.9162 37.2428 42.4214 38.9114 42.4214C41.149 42.4214 43.2949 43.3103 44.8771 44.8925C46.4593 46.4747 47.3482 48.6206 47.3482 50.8582Z" fill="#FFF8E8"/>
<path d="M47.3482 50.8582C47.3482 52.5268 46.8534 54.158 45.9263 55.5454C44.9993 56.9328 43.6816 58.0142 42.14 58.6527C40.5984 59.2913 38.902 59.4584 37.2655 59.1328C35.6289 58.8073 34.1256 58.0038 32.9457 56.8239C31.7658 55.644 30.9623 54.1407 30.6367 52.5041C30.3112 50.8675 30.4783 49.1712 31.1168 47.6295C31.7554 46.0879 32.8367 44.7703 34.2242 43.8432C35.6116 42.9162 37.2428 42.4214 38.9114 42.4214C41.149 42.4214 43.2949 43.3103 44.8771 44.8925C46.4593 46.4747 47.3482 48.6206 47.3482 50.8582Z" stroke="#101828" stroke-width="0.33" stroke-linecap="round" stroke-linejoin="round"/>
<path d="M68.034 50.8582C68.034 52.5268 67.5391 54.158 66.6121 55.5454C65.6851 56.9328 64.3674 58.0142 62.8258 58.6527C61.2842 59.2913 59.5878 59.4584 57.9512 59.1328C56.3147 58.8073 54.8114 58.0038 53.6315 56.8239C52.4516 55.644 51.648 54.1407 51.3225 52.5041C50.997 50.8675 51.1641 49.1712 51.8026 47.6295C52.4412 46.0879 53.5225 44.7703 54.91 43.8432C56.2974 42.9162 57.9285 42.4214 59.5972 42.4214C61.8348 42.4214 63.9807 43.3103 65.5629 44.8925C67.1451 46.4747 68.034 48.6206 68.034 50.8582V50.8582Z" stroke="#101828" stroke-width="0.33" stroke-linecap="round" stroke-linejoin="round"/>
<path d="M47.3481 50.8592C47.8593 50.3574 48.547 50.0762 49.2633 50.0762C49.9796 50.0762 50.6673 50.3574 51.1784 50.8592" stroke="#101828" stroke-width="0.33" stroke-linecap="round" stroke-linejoin="round"/>
<path d="M30.5568 50.8589H29.1562" stroke="#101828" stroke-width="0.33" stroke-miterlimit="10"/>
<path d="M69.6197 50.8589H68.2192" stroke="#101828" stroke-width="0.33" stroke-miterlimit="10"/>
</g>
</svg>
