<svg width="14" height="14" viewBox="0 0 14 14" fill="none" xmlns="http://www.w3.org/2000/svg">
<path d="M11.0207 10.0777L13.876 12.9323L12.9327 13.8757L10.078 11.0203C9.01587 11.8718 7.69471 12.3349 6.33337 12.333C3.02137 12.333 0.333374 9.64501 0.333374 6.33301C0.333374 3.02101 3.02137 0.333008 6.33337 0.333008C9.64537 0.333008 12.3334 3.02101 12.3334 6.33301C12.3353 7.69434 11.8722 9.0155 11.0207 10.0777ZM9.68337 9.58301C10.5294 8.71293 11.002 7.54663 11 6.33301C11 3.75434 8.91137 1.66634 6.33337 1.66634C3.75471 1.66634 1.66671 3.75434 1.66671 6.33301C1.66671 8.91101 3.75471 10.9997 6.33337 10.9997C7.54699 11.0016 8.7133 10.5291 9.58337 9.68301L9.68337 9.58301Z" fill="#667085"/>
</svg>
